Coordinates
version=1
nRows=11
nColumns=63
inDegrees=yes

Units are S.I. units (second, meters, Newtons, ...)
If the header above contains a line with 'inDegrees', this indicates whether rotational values are in degrees (yes) or radians (no).

endheader
time	pelvis_tilt	pelvis_list	pelvis_rotation	pelvis_tx	pelvis_ty	pelvis_tz	hip_flexion_r	hip_adduction_r	hip_rotation_r	knee_angle_r	knee_angle_r_beta	ankle_angle_r	subtalar_angle_r	mtp_angle_r	hip_flexion_l	hip_adduction_l	hip_rotation_l	knee_angle_l	knee_angle_l_beta	ankle_angle_l	subtalar_angle_l	mtp_angle_l	L5_S1_Flex_Ext	L5_S1_Lat_Bending	L5_S1_axial_rotation	L4_L5_Flex_Ext	L4_L5_Lat_Bending	L4_L5_axial_rotation	L3_L4_Flex_Ext	L3_L4_Lat_Bending	L3_L4_axial_rotation	L2_L3_Flex_Ext	L2_L3_Lat_Bending	L2_L3_axial_rotation	L1_L2_Flex_Ext	L1_L2_Lat_Bending	L1_L2_axial_rotation	L1_T12_Flex_Ext	L1_T12_Lat_Bending	L1_T12_axial_rotation	Abs_r3	Abs_r2	Abs_r1	Abs_t1	Abs_t2	neck_flexion	neck_bending	neck_rotation	arm_flex_r	arm_add_r	arm_rot_r	elbow_flex_r	pro_sup_r	wrist_flex_r	wrist_dev_r	arm_flex_l	arm_add_l	arm_rot_l	elbow_flex_l	pro_sup_l	wrist_flex_l	wrist_dev_l
      3.57627119	     -9.36481229	      5.30940696	    109.62618751	      0.06531253	      1.05381296	      0.49985916	     -9.68064452	     -7.44729250	    -10.70609880	     13.59912981	      0.23734959	     30.48105318	     -3.61990465	      0.00000000	    -10.22971981	      6.03326222	      5.77136650	      6.36059533	      0.11101333	     28.43120338	      8.78840203	      0.00000000	     -0.61911033	     -2.20288317	     -3.10421050	     -1.14974980	     -2.92983461	     -3.29822366	     -1.01713637	     -5.35609013	     -3.29822366	     -0.70758120	     -5.35609013	     -2.71618419	     -0.57490586	     -4.49211936	     -2.52217103	     -0.35375964	     -3.41226603	     -2.32815788	     -4.42224321	    -24.91945497	    -17.26468755	      0.00000000	      0.00000000	    -10.56762527	      3.82907404	     32.23618984	     64.91819665	     22.00967045	    222.42847241	      0.06623134	      1.36284435	    -69.77603056	    -24.42063315	     -9.36149143	    -20.27553912	     -5.92500779	     87.61637087	     82.55081958	     -8.61002959	     -1.85826590
      3.59322034	     -9.44082159	      5.39049132	    109.62757902	      0.06622550	      1.05446315	      0.50105835	     -9.56350650	     -7.47100466	    -10.60736876	     13.80869608	      0.24100721	     30.48288019	     -3.74450643	      0.00000000	    -10.27036745	      6.05685938	      5.73977705	      6.26737166	      0.10938627	     28.16582818	      8.72705808	      0.00000000	     -0.61035730	     -2.21279449	     -3.25951816	     -1.13349454	     -2.94301667	     -3.46323804	     -1.00275601	     -5.38018852	     -3.46323804	     -0.69757736	     -5.38018852	     -2.85207839	     -0.56677779	     -4.51233052	     -2.64835850	     -0.34875816	     -3.42761867	     -2.44463862	     -4.35972114	    -25.03157383	    -18.12846213	      0.00000000	      0.00000000	    -10.27492212	      4.22827962	     33.10130542	     63.63673391	     22.39545727	    223.36865619	      0.06452307	      1.48488310	    -69.79760718	    -24.48585337	     -9.54219583	    -22.23588456	     -5.33134100	     86.94535093	     82.37035364	     -8.27378449	     -1.92815171
      3.61016949	     -9.85479370	      5.71220530	    109.69679950	      0.06727783	      1.05513629	      0.50271297	     -9.72062466	     -7.75720121	    -10.50615874	     14.20613585	      0.24794384	     30.66922557	     -4.01613755	      0.00000000	    -10.64119611	      6.31210182	      5.84934911	      6.20063537	      0.10822150	     27.97285790	      8.75961171	      0.00000000	     -0.63664103	     -2.23284513	     -3.53396520	     -1.18230606	     -2.96968403	     -3.75483803	     -1.04593755	     -5.42893966	     -3.75483803	     -0.72761703	     -5.42893966	     -3.09221955	     -0.59118486	     -4.55321779	     -2.87134673	     -0.36377669	     -3.45867711	     -2.65047390	     -4.54746322	    -25.25839071	    -19.65485427	      0.00000000	      0.00000000	     -9.98899533	      4.19173345	     35.13856967	     63.32108895	     23.76444355	    223.60990402	      0.06120881	      1.25956115	    -69.82791467	    -24.52802151	    -10.28552776	    -24.27028655	     -5.40078894	     86.66413246	     81.75772798	     -8.07941643	     -2.31503185
      3.62711864	    -10.49249519	      5.93414827	    110.38747262	      0.06790935	      1.05534361	      0.50426385	    -10.12025071	     -8.07610215	    -10.45883819	     14.37477451	      0.25088714	     30.66027319	     -5.19728335	      0.00000000	    -11.04567007	      6.67549562	      6.72087821	      6.10402759	      0.10653538	     27.86640096	      8.77083302	      0.00000000	     -0.67316313	     -2.26262014	     -3.98356804	     -1.25013124	     -3.00928479	     -4.23254105	     -1.10593970	     -5.50133461	     -4.23254105	     -0.76935814	     -5.50133461	     -3.48562204	     -0.62509928	     -4.61393499	     -3.23664904	     -0.38464541	     -3.50479860	     -2.98767603	     -4.80833689	    -25.59521158	    -22.15541039	      0.00000000	      0.00000000	     -9.10339644	      3.93918689	     38.30591240	     63.53353903	     25.96109140	    222.87762213	      0.05742920	      1.19134011	    -69.85383916	    -24.55547025	    -11.92747396	    -25.54075643	     -6.63497042	     87.05210250	     77.64297983	     -8.26920287	     -3.09863799
      3.64406780	    -11.03657490	      6.17153040	    110.30253345	      0.06978984	      1.05529558	      0.50524170	    -10.26484643	     -8.50709130	    -10.29007871	     14.77455502	      0.25786463	     30.98404658	     -5.35027843	      0.00000000	    -11.49876725	      7.04966501	      6.72211385	      5.86680021	      0.10239498	     27.64476129	      8.82290626	      0.00000000	     -0.70664950	     -2.27548420	     -4.15530139	     -1.31231879	     -3.02639399	     -4.41500772	     -1.16095447	     -5.53261229	     -4.41500772	     -0.80762972	     -5.53261229	     -3.63588871	     -0.65619473	     -4.64016739	     -3.37618238	     -0.40377953	     -3.52472503	     -3.11647604	     -5.04752673	    -25.74073239	    -23.11053972	      0.00000000	      0.00000000	     -8.07349892	      3.03426573	     40.27802951	     63.63893790	     27.85300689	    221.08185653	      0.05423347	      1.01030641	    -69.87228622	    -24.57290611	    -13.06388015	    -26.57055654	     -7.58980064	     87.44809713	     77.30369385	     -8.40371054	     -3.18179124
      3.66101695	    -11.72343802	      6.17469111	    110.39269298	      0.07151184	      1.05511579	      0.50591687	    -10.35100819	     -9.10510044	    -10.18671739	     15.07057900	      0.26303122	     31.21045089	     -5.67030059	      0.00000000	    -11.81381801	      7.59940296	      6.86250881	      5.61407922	      0.09798417	     27.34128971	      8.99587573	      0.00000000	     -0.73019350	     -2.31236221	     -4.28976917	     -1.35604235	     -3.07544174	     -4.55787975	     -1.19963490	     -5.62227748	     -4.55787975	     -0.83453815	     -5.62227748	     -3.75354803	     -0.67805768	     -4.71536902	     -3.48543745	     -0.41723257	     -3.58184906	     -3.21732688	     -5.21569914	    -26.15790378	    -23.85840921	      0.00000000	      0.00000000	     -6.82471599	      2.46396545	     41.69887718	     63.21628707	     29.51065446	    218.75323532	      0.05222415	      0.92634117	    -69.88315655	    -24.57044636	    -14.25812354	    -26.81489969	     -9.04734682	     88.08932148	     76.81263280	     -8.67456711	     -3.31524578
      3.67796610	    -12.28028538	      6.01921163	    110.45943493	      0.07338101	      1.05510224	      0.50636572	    -10.29132319	     -9.60584354	    -10.08277806	     15.24815170	      0.26613045	     31.28734261	     -5.99770291	      0.00000000	    -11.90002240	      8.07122348	      6.96144297	      5.44076781	      0.09495931	     26.97557149	      9.14099706	      0.00000000	     -0.73640361	     -2.34696584	     -4.33067667	     -1.36757514	     -3.12146457	     -4.60134396	     -1.20983749	     -5.70641275	     -4.60134396	     -0.84163569	     -5.70641275	     -3.78934208	     -0.68382439	     -4.78593274	     -3.51867479	     -0.42078102	     -3.63545009	     -3.24800750	     -5.26005735	    -26.54934699	    -24.08592441	      0.00000000	      0.00000000	     -6.19589976	      2.21364849	     42.28926194	     61.98882258	     30.65068586	    216.55983968	      0.05123485	      0.82349663	    -69.88932277	    -24.55114842	    -15.05497985	    -27.14095903	     -9.82290109	     88.53455045	     76.68069284	     -8.73575978	     -3.57397346
      3.69491525	    -12.80037874	      5.67827562	    110.44087431	      0.07535680	      1.05544408	      0.50678894	    -10.03527564	    -10.14380400	     -9.85930313	     15.36149353	      0.26810864	     31.24942314	     -6.34676063	      0.00000000	    -11.76080654	      8.58638672	      6.96194466	      5.33340473	      0.09308547	     26.43690974	      9.27642299	      0.00000000	     -0.72638588	     -2.38771202	     -4.27659148	     -1.34897122	     -3.17565699	     -4.54387845	     -1.19337937	     -5.80548301	     -4.54387845	     -0.83018642	     -5.80548301	     -3.74201755	     -0.67452193	     -4.86902235	     -3.47473058	     -0.41505689	     -3.69856592	     -3.20744361	     -5.18850172	    -27.01027591	    -23.78511885	      0.00000000	      0.00000000	     -6.08878954	      2.35089173	     42.30766731	     59.85022991	     31.35537502	    214.11877327	      0.05102957	      0.74650238	    -69.89247688	    -24.53261142	    -15.31665566	    -27.62937611	     -9.80978655	     88.54334155	     77.00387240	     -8.66092281	     -4.21382572
      3.71186441	    -13.13851750	      5.33841848	    109.98486002	      0.07795404	      1.05612612	      0.50725862	     -9.53872638	    -10.52532837	     -8.84348476	     15.50567007	      0.27062500	     30.93211891	     -7.19878535	      0.00000000	    -11.48559332	      9.00938069	      6.40970305	      5.28827148	      0.09229775	     25.89073622	      9.45473950	      0.00000000	     -0.72082864	     -2.40952776	     -4.05671259	     -1.33865086	     -3.20467192	     -4.31025712	     -1.18424937	     -5.85852580	     -4.31025712	     -0.82383505	     -5.85852580	     -3.54962351	     -0.66936147	     -4.91350901	     -3.29607898	     -0.41188148	     -3.73235850	     -3.04253444	     -5.14880687	    -27.25705996	    -22.56221840	      0.00000000	      0.00000000	     -6.61025249	      2.81830984	     41.80174383	     57.04323399	     31.71303205	    211.72651747	      0.05112193	      0.71658414	    -69.89365654	    -24.53384109	    -14.71213083	    -28.51036394	     -8.48207378	     87.77922257	     78.29514769	     -8.88139070	     -5.84244807
      3.72881356	    -13.49172782	      4.68206201	    109.85394164	      0.08000726	      1.05686704	      0.50739803	     -8.89694148	    -11.01382662	     -8.57176360	     15.55173643	      0.27142901	     30.75802644	     -7.46113378	      0.00000000	    -10.94664369	      9.47908182	      6.23495395	      5.22027318	      0.09111095	     25.22250763	      9.72106589	      0.00000000	     -0.68009248	     -2.43727685	     -3.87776693	     -1.26299974	     -3.24157821	     -4.12012736	     -1.11732393	     -5.92599493	     -4.12012736	     -0.77727769	     -5.92599493	     -3.39304606	     -0.63153387	     -4.97009495	     -3.15068563	     -0.38860484	     -3.77534184	     -2.90832519	     -4.85783254	    -27.57096317	    -21.56697631	      0.00000000	      0.00000000	     -7.55900061	      3.42112928	     41.15894927	     53.74160296	     32.19887648	    210.38232014	      0.05103274	      0.65655875	    -69.89451790	    -24.53317733	    -14.05552739	    -29.62203301	     -6.67564803	     86.94565259	     79.09505056	     -8.58568695	     -6.94683847
      3.74576271	    -13.74253724	      4.09368919	    109.44850254	      0.08246209	      1.05775219	      0.50729503	     -8.19196166	    -11.40244281	     -8.03475777	     15.60577832	      0.27237221	     30.48954980	     -7.70271869	      0.00000000	    -10.43708064	      9.87172610	      5.63218150	      5.10269237	      0.08905878	     24.56435900	      9.98260489	      0.00000000	     -0.65405285	     -2.44696621	     -3.62499290	     -1.21464155	     -3.25446507	     -3.85155496	     -1.07454343	     -5.94955366	     -3.85155496	     -0.74751700	     -5.94955366	     -3.17186879	     -0.60735348	     -4.98985351	     -2.94530673	     -0.37372580	     -3.79035067	     -2.71874468	     -4.67183410	    -27.68057122	    -20.16112302	      0.00000000	      0.00000000	     -8.50454366	      4.00121203	     40.34877763	     50.30757619	     32.79859254	    209.69936096	      0.05060183	      0.64218845	    -69.89614172	    -24.55273226	    -13.00666405	    -31.10159518	     -3.78671088	     85.79761987	     80.05344421	     -8.45051187	     -8.73249124
